<svg xmlns="http://www.w3.org/2000/svg" width="25.093" height="25.089" viewBox="0 0 25.093 25.089"><defs><style>.a{fill:none;}.b{fill:#dadde2;}.c{fill:#f69e95;stroke:rgba(0,0,0,0);stroke-miterlimit:10;}</style></defs><g transform="translate(-197.409 -837.414)"><rect class="a" width="24" height="24" transform="translate(198 838)"/><g transform="translate(198 840)"><path class="b" d="M12,16a.749.749,0,0,1-.542-.232l-5.25-5.5A.75.75,0,0,1,6.75,9H9.5V3.25A1.252,1.252,0,0,1,10.75,2h2.5A1.252,1.252,0,0,1,14.5,3.25V9h2.75a.75.75,0,0,1,.542,1.268l-5.25,5.5A.749.749,0,0,1,12,16Z" transform="translate(0 -2)"/><path class="b" d="M22.25,22H1.75A1.752,1.752,0,0,1,0,20.25v-.5A1.752,1.752,0,0,1,1.75,18h20.5A1.752,1.752,0,0,1,24,19.75v.5A1.752,1.752,0,0,1,22.25,22Z" transform="translate(0 -2)"/></g><path class="c" d="M-4486.735,5063.335a1,1,0,0,1,0-1.415l10.294-10.294-10.29-10.289a1,1,0,0,1,0-1.415,1,1,0,0,1,1.415,0l10.289,10.29,10.294-10.294a1,1,0,0,1,1.413,0,1,1,0,0,1,0,1.416l-10.293,10.293,10.29,10.29a1,1,0,0,1,0,1.415,1,1,0,0,1-1.415,0l-10.29-10.29-10.294,10.294a1,1,0,0,1-.707.292A1,1,0,0,1-4486.735,5063.335Z" transform="translate(4685.027 -4201.625)"/></g></svg>