<svg width="20" height="20" viewBox="0 0 20 20" fill="none" xmlns="http://www.w3.org/2000/svg">
<path d="M16.6663 10C16.6663 6.31814 13.6816 3.33337 9.99967 3.33337C6.31778 3.33337 3.33301 6.31814 3.33301 10C3.33301 13.6819 6.31778 16.6667 9.99967 16.6667C13.6816 16.6667 16.6663 13.6819 16.6663 10Z" stroke="#7A80FF" stroke-width="2"/>
<path d="M10.0002 9.99997V6.11108C10.7694 6.11108 11.5212 6.33916 12.1608 6.76648C12.8003 7.1938 13.2987 7.80116 13.5931 8.51176C13.8874 9.22236 13.9644 10.0043 13.8144 10.7587C13.6643 11.513 13.2939 12.206 12.7501 12.7498C12.2062 13.2937 11.5133 13.6641 10.7589 13.8141C10.0045 13.9642 9.2226 13.8872 8.512 13.5928C7.8014 13.2985 7.19404 12.8 6.76672 12.1605C6.33941 11.521 6.11133 10.7691 6.11133 9.99997H10.0002Z" fill="#7A80FF"/>
</svg>
