<svg xmlns="http://www.w3.org/2000/svg" width="60" height="60" viewBox="0 0 60 60"><defs><style>.a,.d{fill:none;}.b{fill:#5380c0;}.c{fill:#fff;opacity:0.5;}.d{stroke:#fff;stroke-miterlimit:10;stroke-width:3px;}</style></defs><rect class="a" width="60" height="60"/><g transform="translate(8 0)"><path class="b" d="M616.429,320.925H590.084a9.13,9.13,0,0,1-9.13-9.129V270.055a9.13,9.13,0,0,1,9.13-9.13h22.883l12.592,12.649V311.8A9.129,9.129,0,0,1,616.429,320.925Z" transform="translate(-580.954 -260.925)"/><path class="c" d="M644.4,273.577h-10a2.569,2.569,0,0,1-2.57-2.564l-.021-10.088" transform="translate(-599.791 -260.925)"/><g transform="translate(7.719 23.398)"><line class="d" x2="29.167"/><line class="d" x2="29.167" transform="translate(0 6.789)"/><line class="d" x2="29.167" transform="translate(0 13.577)"/><line class="d" x2="14.583" transform="translate(0 20.366)"/></g></g></svg>