<svg xmlns="http://www.w3.org/2000/svg" width="60" height="60" viewBox="0 0 60 60"><defs><style>.a{fill:none;}.b{fill:#596c89;}.c,.d{fill:#fff;}.c{opacity:0.5;}.e{fill:#a1bedf;}</style></defs><rect class="a" width="60" height="60"/><g transform="translate(8)"><g transform="translate(0 0)"><path class="b" d="M1167.29,515.207h-26.345a9.13,9.13,0,0,1-9.13-9.13v-41.74a9.13,9.13,0,0,1,9.13-9.13h22.883l12.592,12.649v38.221A9.129,9.129,0,0,1,1167.29,515.207Z" transform="translate(-1131.815 -455.207)"/><path class="c" d="M1195.257,467.859h-10a2.57,2.57,0,0,1-2.57-2.565l-.021-10.087" transform="translate(-1150.652 -455.207)"/></g><rect class="d" width="2.926" height="2.926" transform="translate(18.689)"/><rect class="d" width="2.926" height="2.926" transform="translate(21.615 2.926)"/><rect class="d" width="2.926" height="2.926" transform="translate(18.689 5.852)"/><rect class="d" width="2.926" height="2.926" transform="translate(21.615 8.778)"/><rect class="d" width="2.926" height="2.926" transform="translate(18.689 11.704)"/><rect class="d" width="2.926" height="2.926" transform="translate(21.615 14.63)"/><rect class="d" width="2.926" height="2.926" transform="translate(18.689 17.556)"/><rect class="d" width="2.926" height="2.926" transform="translate(21.615 20.482)"/><rect class="d" width="2.926" height="2.926" transform="translate(18.689 23.408)"/><rect class="d" width="2.926" height="2.926" transform="translate(21.615 26.334)"/><rect class="d" width="5.852" height="8.161" transform="translate(18.689 29.26)"/><rect class="e" width="2.926" height="2.926" transform="translate(20.152 33.34)"/></g></svg>