<svg xmlns="http://www.w3.org/2000/svg" width="60" height="60" viewBox="0 0 60 60"><defs><style>.a,.d{fill:none;}.b{fill:#00ac54;}.c{fill:#fff;opacity:0.5;}.d{stroke:#fff;stroke-miterlimit:10;stroke-width:3px;}</style></defs><rect class="a" width="60" height="60"/><g transform="translate(8)"><path class="b" d="M1167.29,320.925h-26.345a9.13,9.13,0,0,1-9.13-9.129V270.055a9.13,9.13,0,0,1,9.13-9.13h22.883l12.592,12.649V311.8A9.129,9.129,0,0,1,1167.29,320.925Z" transform="translate(-1131.815 -260.925)"/><path class="c" d="M1195.257,273.577h-10a2.569,2.569,0,0,1-2.57-2.564l-.021-10.088" transform="translate(-1150.652 -260.925)"/><g transform="translate(9.319 23.643)"><rect class="d" width="25.968" height="20.121"/><line class="d" y2="20.121" transform="translate(5.931)"/><line class="d" x2="25.968" transform="translate(0 14.371)"/><line class="d" x2="25.968" transform="translate(0 6.566)"/></g></g></svg>