<svg xmlns="http://www.w3.org/2000/svg" width="60" height="60" viewBox="0 0 60 60"><defs><style>.a{fill:none;}.b{fill:#ee3e2c;}.c,.d{fill:#fff;}.c{opacity:0.5;}</style></defs><rect class="a" width="60" height="60"/><g transform="translate(8 0)"><path class="b" d="M800.05,515.207H773.7a9.13,9.13,0,0,1-9.13-9.13v-41.74a9.13,9.13,0,0,1,9.13-9.13h22.884l12.592,12.649v38.221A9.13,9.13,0,0,1,800.05,515.207Z" transform="translate(-764.574 -455.207)"/><path class="c" d="M828.017,467.859h-10a2.57,2.57,0,0,1-2.57-2.565l-.021-10.087" transform="translate(-783.411 -455.207)"/><path class="d" d="M792.627,499.437h11.7a11.7,11.7,0,1,1-11.7-11.7Z" transform="translate(-770.634 -467.259)"/><path class="d" d="M802.491,496.517v-11.7a11.7,11.7,0,0,1,11.7,11.7Z" transform="translate(-778.62 -466.177)"/></g></svg>