<svg xmlns="http://www.w3.org/2000/svg" width="60" height="60" viewBox="0 0 60 60"><defs><style>.a{fill:none;}.b{fill:#9954a1;}.c,.d{fill:#fff;}.c{opacity:0.5;}</style></defs><rect class="a" width="60" height="60"/><g transform="translate(8)"><path class="b" d="M983.67,709.489H957.325a9.129,9.129,0,0,1-9.13-9.13v-41.74a9.129,9.129,0,0,1,9.13-9.13h22.883L992.8,662.138v38.221A9.13,9.13,0,0,1,983.67,709.489Z" transform="translate(-948.195 -649.489)"/><path class="c" d="M1011.637,662.141h-10a2.57,2.57,0,0,1-2.57-2.565l-.021-10.087" transform="translate(-967.032 -649.489)"/><path class="d" d="M985.731,684.314a.717.717,0,0,0-.566-.171l-12.9,1.7a.716.716,0,0,0-.623.71v13.925a4.9,4.9,0,0,0-3.225-1.182,4.24,4.24,0,1,0,4.657,4.22V690.76l11.465-1.508v7.453a4.773,4.773,0,0,0-3.1-1.119,4.129,4.129,0,1,0,4.533,4.109V684.852A.715.715,0,0,0,985.731,684.314Z" transform="translate(-953.962 -662.324)"/></g></svg>