<svg xmlns="http://www.w3.org/2000/svg" width="60" height="60" viewBox="0 0 60 60"><defs><style>.a{fill:none;}.b{fill:#809bbe;}.c{fill:#fff;opacity:0.5;}.d{fill:#e6eaf1;}</style></defs><rect class="a" width="60" height="60"/><g transform="translate(8)"><path class="b" d="M249.189,515.207H222.843a9.13,9.13,0,0,1-9.13-9.13v-41.74a9.13,9.13,0,0,1,9.13-9.13h22.884l12.592,12.649v38.221A9.13,9.13,0,0,1,249.189,515.207Z" transform="translate(-213.713 -455.207)"/><path class="c" d="M277.156,467.859h-10a2.57,2.57,0,0,1-2.57-2.565l-.021-10.087" transform="translate(-232.55 -455.207)"/><path class="d" d="M251.528,501.618l-10.985-7.669a.4.4,0,0,0-.626.327v15.338a.4.4,0,0,0,.626.327l10.985-7.669A.4.4,0,0,0,251.528,501.618Z" transform="translate(-223.42 -469.532)"/></g></svg>