<svg xmlns="http://www.w3.org/2000/svg" width="60" height="60" viewBox="0 0 60 60"><defs><style>.a{fill:none;}.b{fill:#ee3e2c;}.c,.d{fill:#fff;}.c{opacity:0.5;}</style></defs><rect class="a" width="60" height="60"/><g transform="translate(8)"><path class="b" d="M249.188,320.923H222.843a9.129,9.129,0,0,1-9.13-9.129v-41.74a9.13,9.13,0,0,1,9.13-9.13h22.883l12.592,12.648v38.221A9.129,9.129,0,0,1,249.188,320.923Z" transform="translate(-213.713 -260.925)"/><path class="c" d="M277.156,273.576h-10a2.57,2.57,0,0,1-2.57-2.564l-.021-10.087" transform="translate(-232.551 -260.925)"/><path class="d" d="M239.5,289.573c-.363-1.3-1.244-1.953-1.991-1.857a2.876,2.876,0,0,0-2.241,1.493c-1.072,2.412,1.168,9.516,1.513,10.7-2.183,6.586-9.649,19.605-13.306,20.486-.077-.862.383-3.35,5.208-6.452a7.121,7.121,0,0,0,.67-.8c-4.078,1.991-9.362,5.188-6.184,7.582a3.026,3.026,0,0,0,.747.363c2.431.9,5.839-2.049,9.266-8.73a62.16,62.16,0,0,1,11.123-2.834c4.71,3.2,7.869,3.848,10.013,3.025a3.269,3.269,0,0,0,1.8-1.953c-1.743,2.144-5.82.651-9.075-1.4,3.005-.325,6.107-.517,7.448-.1,1.7.536,1.646,1.378,1.627,1.493a2.271,2.271,0,0,0-.038-1.8c-1.436-2.336-8.022-.976-10.415-.727a18.972,18.972,0,0,1-7.429-9.267c.976-3.772,2.03-6.509,1.264-9.228m-1.627,7.907c-.631-2.24-1.512-7.218-.1-8.826,2.776,1.589,1.053,5.361.1,8.826m5.189,11.1a47.2,47.2,0,0,0-9.649,3.005,75.137,75.137,0,0,0,4-10.721,24.759,24.759,0,0,0,5.648,7.716" transform="translate(-216.855 -270.846)"/></g></svg>