<?xml version="1.0" encoding="utf-8"?>
<!-- Generator: Adobe Illustrator 22.0.1, SVG Export Plug-In . SVG Version: 6.00 Build 0)  -->
<svg version="1.1" xmlns="http://www.w3.org/2000/svg" xmlns:xlink="http://www.w3.org/1999/xlink" x="0px" y="0px"
	 viewBox="0 0 3000 2027.3" style="enable-background:new 0 0 3000 2027.3;" xml:space="preserve">
<style type="text/css">
	.st0{stroke:#211F1F;stroke-miterlimit:10;}
	.st1{fill:#FFFFFF;}
</style>
<g id="Layer_2">
	<rect class="st0" width="3000" height="2027.3"/>
</g>
<g id="Layer_1">
	<g>
		<path class="st1" d="M1058.7,1046.4V931.8h-29.3v111.8c0,8.2,1.9,15.9,5.4,23c4.9,10.3,13.4,18.7,23.7,23.9c7,3.5,14.8,5.4,23,5.4
			h83.2v-29.3l-86-0.2C1068.3,1064.9,1060.1,1056.7,1058.7,1046.4z"/>
		<polygon class="st1" points="1509.3,931.5 1476.5,931.5 1461.5,960.8 1425.6,1031.1 1389.8,960.8 1374.8,931.5 1341.9,931.5 
			1356.9,960.8 1425.6,1095.6 1494.3,960.8 		"/>
		<polygon class="st1" points="1547.9,931.5 1479.3,1066.3 1464.3,1095.6 1497.1,1095.6 1512.1,1066.3 1547.9,996 1583.8,1066.3 
			1598.8,1095.6 1631.6,1095.6 1616.6,1066.3 		"/>
		<polygon class="st1" points="1599.3,961 1666.5,961 1666.5,1095.8 1695.8,1095.8 1695.8,961 1763.1,961 1763.1,931.8 
			1599.3,931.8 		"/>
		<path class="st1" d="M1921.5,1013.5c0,29.1-23.7,52.7-52.7,52.7s-52.7-23.7-52.7-52.7v-82h-29.3v82c0,45.2,36.8,82,82,82
			s82-36.8,82-82v-82h-29.3V1013.5z"/>
		<path class="st1" d="M2129.4,976.7v-0.9c0-24.4-19.9-44.3-44.3-44.3h-66.6c-24.4,0-44.1,19.9-44.1,44.3v0.9c0,9.4,2.8,18,7.7,25.1
			c1.6,2.6,3.5,4.9,5.6,7c8,7.7,18.7,12.4,30.7,12.4h59.1c12.4,0,22.7,10.1,22.7,22.5c0,12.4-10.3,22.5-22.7,22.5h-51.3
			c-12.4,0-22.5-10.1-22.5-22.5h-29.3c0,28.6,23.2,51.8,51.8,51.8h51.3c28.6,0,51.8-23.2,51.8-51.8c0-12.4-4.5-23.9-11.7-32.8
			c-0.7-0.7-1.2-1.4-1.9-2.1c-9.4-10.3-23-16.9-38.2-16.9h-59.1c-8.2,0-15-6.8-15-15V976c0-8.2,6.8-15,15-15h66.6
			c8.2,0,15,6.8,15,15v0.9L2129.4,976.7z"/>
		<rect x="1188.8" y="1066.3" class="st1" width="135.3" height="29.3"/>
		<rect x="1188.8" y="931.5" class="st1" width="135.3" height="29.3"/>
		<rect x="1188.8" y="998.9" class="st1" width="135.3" height="29.3"/>
		<rect x="870.6" y="1066.3" class="st1" width="135.3" height="29.3"/>
		<rect x="870.6" y="931.5" class="st1" width="135.3" height="29.3"/>
		<rect x="870.6" y="998.9" class="st1" width="135.3" height="29.3"/>
	</g>
</g>
</svg>
